<svg width="224" height="224" viewBox="0 0 224 224" fill="none" xmlns="http://www.w3.org/2000/svg">
<path d="M26.8884 32.2078H16.2495C7.43242 32.2078 0.291016 25.0664 0.291016 16.2493C0.291016 7.43231 7.43242 0.290909 16.2495 0.290909H26.8884C35.7055 0.290909 42.8469 7.43231 42.8469 16.2493C42.8469 25.0664 35.7055 32.2078 26.8884 32.2078Z" fill="#2DD4BF"/>
<path d="M58.8053 223.709H16.2495C7.43242 223.709 0.291016 216.568 0.291016 207.751C0.291016 198.934 7.43242 191.792 16.2495 191.792H58.8053C67.6223 191.792 74.7637 198.934 74.7637 207.751C74.7637 216.568 67.6223 223.709 58.8053 223.709Z" fill="#2DD4BF"/>
<path d="M80.0832 80.0831H16.2495C7.43242 80.0831 0.291016 72.9417 0.291016 64.1247C0.291016 55.3076 7.43242 48.1662 16.2495 48.1662H80.0832C88.9003 48.1662 96.0417 55.3076 96.0417 64.1247C96.0417 72.9417 88.9003 80.0831 80.0832 80.0831Z" fill="#FCD34D"/>
<path d="M58.8053 127.958H16.2495C7.43242 127.958 0.291016 120.817 0.291016 112C0.291016 103.183 7.43242 96.0416 16.2495 96.0416H58.8053C67.6223 96.0416 74.7637 103.183 74.7637 112C74.7637 120.817 67.6223 127.958 58.8053 127.958Z" fill="#2DD4BF"/>
<path d="M122.639 175.834H16.2495C7.43242 175.834 0.291016 168.692 0.291016 159.875C0.291016 151.058 7.43242 143.917 16.2495 143.917H122.639C131.456 143.917 138.598 151.058 138.598 159.875C138.598 168.692 131.456 175.834 122.639 175.834Z" fill="#FCD34D"/>
<path d="M112 32.2078H69.4443C60.6272 32.2078 53.4858 25.0664 53.4858 16.2493C53.4858 7.43231 60.6272 0.290909 69.4443 0.290909H112C120.817 0.290909 127.959 7.43231 127.959 16.2493C127.959 25.0664 120.817 32.2078 112 32.2078Z" fill="#A78BFA"/>
<path d="M186.473 80.0831H122.639C113.822 80.0831 106.681 72.9417 106.681 64.1247C106.681 55.3076 113.822 48.1662 122.639 48.1662H186.473C195.29 48.1662 202.431 55.3076 202.431 64.1247C202.431 72.9417 195.29 80.0831 186.473 80.0831Z" fill="#2DD4BF"/>
<path d="M207.751 127.958H101.361C92.544 127.958 85.4026 120.817 85.4026 112C85.4026 103.183 92.544 96.0416 101.361 96.0416H207.751C216.568 96.0416 223.709 103.183 223.709 112C223.709 120.817 216.568 127.958 207.751 127.958Z" fill="#A78BFA"/>
<path d="M186.473 175.834H165.195C156.378 175.834 149.237 168.692 149.237 159.875C149.237 151.058 156.378 143.917 165.195 143.917H186.473C195.29 143.917 202.431 151.058 202.431 159.875C202.431 168.692 195.29 175.834 186.473 175.834Z" fill="#2DD4BF"/>
<path d="M112 223.709H101.361C92.544 223.709 85.4026 216.568 85.4026 207.751C85.4026 198.934 92.544 191.792 101.361 191.792H112C120.817 191.792 127.958 198.934 127.958 207.751C127.958 216.568 120.817 223.709 112 223.709Z" fill="#A78BFA"/>
</svg>
